C:\GBW_MyPrograms\KinderuniversiteitApp\Resultaten\w_group_2_3\Ellis_model12_v1.mot
version=1
nRows=6
nColumns=31
inDegrees=yes
endheader
                time	         pelvis_tilt	           pelvis_tx	           pelvis_ty	       hip_flexion_r	        knee_angle_r	       ankle_angle_r	       hip_flexion_l	        knee_angle_l	       ankle_angle_l	    lumbar_extension	          arm_flex_r	          arm_flex_l	hamstrings_r/activation	bifemsh_r/activation	glut_max_r/activation	iliopsoas_r/activation	rect_fem_r/activation	  vasti_r/activation	gastroc_r/activation	 soleus_r/activation	tib_ant_r/activation	hamstrings_l/activation	bifemsh_l/activation	glut_max_l/activation	iliopsoas_l/activation	rect_fem_l/activation	  vasti_l/activation	gastroc_l/activation	 soleus_l/activation	tib_ant_l/activation	
          0.22216690	        -10.26637476	          0.29548198	          0.49483774	          7.64756083	        -28.04811524	        -22.71049123	         32.54989110	        -13.80014376	        -12.84029262	        -10.46562013	         29.71136628	         29.55986948	          0.31635735	          0.84812984	          0.10982649	          0.94179708	          0.60653570	          0.08705280	          0.66022117	          0.60675826	          0.65458300	          0.75035727	          0.32179493	          0.85949885	          0.20581626	          0.63593426	          0.82546923	          0.20954066	          0.16012358	          0.76691431	
          0.22661024	        -10.17422720	          0.30243771	          0.49377563	          8.35389200	        -30.28403095	        -22.44270733	         30.97348459	        -12.03277688	        -12.76587957	        -10.23017872	         29.47370407	         29.32945318	          0.31116851	          0.85103233	          0.10688130	          0.93477764	          0.59096254	          0.08278868	          0.64754937	          0.57363000	          0.69969024	          0.78707549	          0.31623195	          0.87852507	          0.19444945	          0.62138266	          0.83419800	          0.19660822	          0.14993831	          0.81739619	
          0.23105358	        -10.09168168	          0.30942510	          0.49252091	          9.12231790	        -32.55299918	        -22.12530311	         29.40602250	        -10.64114472	        -12.40950897	         -9.96270852	         29.22741505	         29.09085370	          0.30177718	          0.84963782	          0.10481694	          0.92661018	          0.58300996	          0.07931665	          0.63708358	          0.54369895	          0.72445296	          0.81148669	          0.30389659	          0.89338830	          0.18382648	          0.60617297	          0.85326442	          0.26356537	          0.29574675	          0.76666130	
          0.23549692	        -10.01837533	          0.31639862	          0.49112694	          9.96548611	        -34.86575966	        -21.71507142	         27.85087610	         -9.58557572	        -11.77330357	         -9.68083854	         28.98061509	         28.85201804	          0.29079387	          0.84458944	          0.10453941	          0.91449465	          0.57872139	          0.07677021	          0.62746616	          0.51573722	          0.74414112	          0.84174831	          0.30304637	          0.90312517	          0.17445455	          0.57965234	          0.83748101	          0.25725792	          0.28181395	          0.73812055	
          0.23994025	         -9.95722219	          0.32329408	          0.48968316	         10.89713569	        -37.20010585	        -21.26759307	         26.28453372	         -8.49957905	        -11.10606591	         -9.40553927	         28.74391715	         28.62353410	          0.27812725	          0.83767489	          0.10516841	          0.90482708	          0.59777368	          0.07519282	          0.61831067	          0.48915215	          0.76170516	          0.86345959	          0.31458768	          0.90959052	          0.16625063	          0.55418065	          0.81474010	          0.24704732	          0.26642262	          0.76128897	
          0.24438359	         -9.91108443	          0.33003000	          0.48829866	         11.93302838	        -39.53148978	        -20.87314828	         24.75584210	         -7.37934367	        -10.63084530	         -9.16233477	         28.53473382	         28.42283118	          0.26467623	          0.83021298	          0.10644196	          0.89979988	          0.64619095	          0.07483789	          0.61000521	          0.46424585	          0.77472294	          0.87596749	          0.32637379	          0.91196134	          0.15927214	          0.53117990	          0.79306273	          0.23823345	          0.25203971	          0.77646014	
